HIERARCHY
ROOT Junyuan_V1:Solving:Hips
{
	OFFSET 0.000000 0.000000 0.000000
	CHANNELS 6 Xposition Yposition Zposition Xrotation Yrotation Zrotation
	JOINT Junyuan_V1:Solving:Spine
	{
		OFFSET 0.000000 -11.180205 2.228564
		CHANNELS 6 Xposition Yposition Zposition Xrotation Yrotation Zrotation
		JOINT Junyuan_V1:Solving:Spine1
		{
			OFFSET 0.000000 -8.682996 1.531049
			CHANNELS 6 Xposition Yposition Zposition Xrotation Yrotation Zrotation
			JOINT Junyuan_V1:Solving:Spine2
			{
				OFFSET 0.000000 -8.783394 0.768450
				CHANNELS 6 Xposition Yposition Zposition Xrotation Yrotation Zrotation
				JOINT Junyuan_V1:Solving:Spine3
				{
					OFFSET 0.000000 -8.816944 0.000000
					CHANNELS 6 Xposition Yposition Zposition Xrotation Yrotation Zrotation
					JOINT Junyuan_V1:Solving:Neck
					{
						OFFSET 0.000000 -11.336071 -1.133605
						CHANNELS 6 Xposition Yposition Zposition Xrotation Yrotation Zrotation
						JOINT Junyuan_V1:Solving:Neck1
						{
							OFFSET 0.000000 -7.643246 -0.668695
							CHANNELS 6 Xposition Yposition Zposition Xrotation Yrotation Zrotation
							JOINT Junyuan_V1:Solving:Head
							{
								OFFSET 0.000000 -7.555870 -1.332303
								CHANNELS 6 Xposition Yposition Zposition Xrotation Yrotation Zrotation
								JOINT Junyuan_V1:Solving:HeadEnd
								{
									OFFSET 0.000000 -9.728081 0.000002
									CHANNELS 6 Xposition Yposition Zposition Xrotation Yrotation Zrotation
									End Site
									{
										OFFSET 0.000000 -9.728081 0.000002
									}
								}
							}
						}
					}
					JOINT Junyuan_V1:Solving:RightShoulder
					{
						OFFSET 0.000000 -8.097195 -5.270916
						CHANNELS 6 Xposition Yposition Zposition Xrotation Yrotation Zrotation
						JOINT Junyuan_V1:Solving:RightArm
						{
							OFFSET -20.762394 -0.000008 0.000000
							CHANNELS 6 Xposition Yposition Zposition Xrotation Yrotation Zrotation
							JOINT Junyuan_V1:Solving:RightForeArm
							{
								OFFSET -29.048946 -0.000008 0.000000
								CHANNELS 6 Xposition Yposition Zposition Xrotation Yrotation Zrotation
								JOINT Junyuan_V1:Solving:RightHand
								{
									OFFSET -22.031235 -0.000008 0.000000
									CHANNELS 6 Xposition Yposition Zposition Xrotation Yrotation Zrotation
									JOINT Junyuan_V1:Solving:RightHandThumb1
									{
										OFFSET -3.579254 2.890213 -2.661497
										CHANNELS 6 Xposition Yposition Zposition Xrotation Yrotation Zrotation
										End Site
										{
											OFFSET -5.229485 0.000000 -5.277840
										}
									}
									JOINT Junyuan_V1:Solving:RightHandMiddle1
									{
										OFFSET -9.544678 -0.000004 0.061184
										CHANNELS 6 Xposition Yposition Zposition Xrotation Yrotation Zrotation
										End Site
										{
											OFFSET -7.429878 -0.000004 0.000000
										}
									}
								}
							}
						}
					}
					JOINT Junyuan_V1:Solving:LeftShoulder
					{
						OFFSET 0.000000 -8.097195 -5.270916
						CHANNELS 6 Xposition Yposition Zposition Xrotation Yrotation Zrotation
						JOINT Junyuan_V1:Solving:LeftArm
						{
							OFFSET 20.762394 -0.000008 0.000000
							CHANNELS 6 Xposition Yposition Zposition Xrotation Yrotation Zrotation
							JOINT Junyuan_V1:Solving:LeftForeArm
							{
								OFFSET 29.048946 -0.000008 0.000000
								CHANNELS 6 Xposition Yposition Zposition Xrotation Yrotation Zrotation
								JOINT Junyuan_V1:Solving:LeftHand
								{
									OFFSET 22.031235 -0.000008 0.000000
									CHANNELS 6 Xposition Yposition Zposition Xrotation Yrotation Zrotation
									JOINT Junyuan_V1:Solving:LeftHandThumb1
									{
										OFFSET 3.579254 2.890213 -2.661497
										CHANNELS 6 Xposition Yposition Zposition Xrotation Yrotation Zrotation
										End Site
										{
											OFFSET 5.229485 0.000000 -5.277840
										}
									}
									JOINT Junyuan_V1:Solving:LeftHandMiddle1
									{
										OFFSET 9.544678 -0.000004 0.061184
										CHANNELS 6 Xposition Yposition Zposition Xrotation Yrotation Zrotation
										End Site
										{
											OFFSET 7.429878 -0.000004 0.000000
										}
									}
								}
							}
						}
					}
				}
			}
		}
	}
	JOINT Junyuan_V1:Solving:RightUpLeg
	{
		OFFSET -10.825166 0.000000 0.000000
		CHANNELS 6 Xposition Yposition Zposition Xrotation Yrotation Zrotation
		JOINT Junyuan_V1:Solving:RightLeg
		{
			OFFSET 0.000000 43.678444 -0.000006
			CHANNELS 6 Xposition Yposition Zposition Xrotation Yrotation Zrotation
			JOINT Junyuan_V1:Solving:RightFoot
			{
				OFFSET 0.000000 36.488441 -0.000006
				CHANNELS 6 Xposition Yposition Zposition Xrotation Yrotation Zrotation
				JOINT Junyuan_V1:Solving:RightForeFoot
				{
					OFFSET 0.000000 3.967834 -0.000000
					CHANNELS 6 Xposition Yposition Zposition Xrotation Yrotation Zrotation
					JOINT Junyuan_V1:Solving:RightToeBase
					{
						OFFSET 0.000000 0.000000 -15.539299
						CHANNELS 6 Xposition Yposition Zposition Xrotation Yrotation Zrotation
						JOINT Junyuan_V1:Solving:RightToeBaseEnd
						{
							OFFSET 0.000000 0.000000 -3.486985
							CHANNELS 6 Xposition Yposition Zposition Xrotation Yrotation Zrotation
							End Site
							{
								OFFSET 0.000000 -3.486992 0.000000
							}
						}
					}
				}
			}
		}
	}
	JOINT Junyuan_V1:Solving:LeftUpLeg
	{
		OFFSET 10.825166 0.000000 0.000000
		CHANNELS 6 Xposition Yposition Zposition Xrotation Yrotation Zrotation
		JOINT Junyuan_V1:Solving:LeftLeg
		{
			OFFSET 0.000000 43.678444 -0.000006
			CHANNELS 6 Xposition Yposition Zposition Xrotation Yrotation Zrotation
			JOINT Junyuan_V1:Solving:LeftFoot
			{
				OFFSET 0.000000 36.488441 -0.000006
				CHANNELS 6 Xposition Yposition Zposition Xrotation Yrotation Zrotation
				JOINT Junyuan_V1:Solving:LeftForeFoot
				{
					OFFSET 0.000000 3.967834 -0.000000
					CHANNELS 6 Xposition Yposition Zposition Xrotation Yrotation Zrotation
					JOINT Junyuan_V1:Solving:LeftToeBase
					{
						OFFSET 0.000000 0.000000 -15.539299
						CHANNELS 6 Xposition Yposition Zposition Xrotation Yrotation Zrotation
						JOINT Junyuan_V1:Solving:LeftToeBaseEnd
						{
							OFFSET 0.000000 0.000000 -3.974441
							CHANNELS 6 Xposition Yposition Zposition Xrotation Yrotation Zrotation
							End Site
							{
								OFFSET 0.000000 -3.974442 0.000000
							}
						}
					}
				}
			}
		}
	}
}
MOTION
Frames: 4
Frame Time: 0.041667
-61.499702 -38.406277 -88.984840 80.625008 -167.749719 0.568450 -0.000002 -11.180203 2.228567 15.406088 1.506557 6.988768 0.000003 -8.682994 1.531041 1.756067 -0.305623 1.052649 0.000007 -8.783409 0.768451 2.705603 -3.373767 1.761364 -0.000009 -8.816962 -0.000008 2.957836 0.021640 0.560766 0.000012 -11.336061 -1.133609 -15.636477 -4.888885 0.584336 -0.000009 -7.643311 -0.668695 4.536654 -1.015082 -1.185352 -0.000007 -7.555868 -1.332283 11.458054 0.040010 -1.371460 -0.000003 -9.728111 -0.000006 -0.000003 0.000001 0.000000 0.000002 -8.097191 -5.270917 -0.000007 15.621585 13.008283 -20.762390 0.000009 0.000014 -38.918117 -48.697350 -108.706395 -29.048903 -0.000003 -0.000013 6.553476 -32.309421 3.513667 -22.031229 -0.000035 0.000001 0.355432 -1.048237 18.733276 -3.579267 2.890206 -2.661513 0.000011 0.000007 0.000004 -9.544677 -0.000008 0.061169 0.000002 0.000003 0.000002 0.000001 -8.097202 -5.270910 -0.000009 -18.498539 -13.813346 20.762383 0.000011 -0.000000 -31.247200 53.561756 100.892160 29.048935 0.000000 0.000009 -8.773544 30.712625 4.506967 22.031237 -0.000001 -0.000004 -0.579965 -3.181891 -10.335300 3.579278 2.890201 -2.661499 0.000006 -0.000005 0.000001 9.544698 -0.000024 0.061186 0.000007 -0.000001 0.000006 -10.825167 -0.000022 0.000005 -24.512987 8.504602 5.033140 -0.000010 43.678436 0.000004 22.444915 -0.000000 0.000001 -0.000003 36.488430 -0.000009 1.294418 -2.413669 -14.748197 -0.000012 3.967827 -0.000001 0.000000 0.000002 -0.000000 -0.000006 -0.000010 -15.539296 9.724970 0.000003 0.000001 -0.000012 -0.000008 -3.486981 -0.000002 0.000001 -0.000004 10.825159 -0.000007 0.000000 -11.762028 -12.685604 -3.848954 -0.000009 43.678440 -0.000002 3.352950 0.000000 -0.000000 0.000007 36.488422 0.000005 7.311987 -6.686291 1.719318 0.000003 3.967827 0.000001 -0.000000 0.000001 -0.000000 0.000008 0.000003 -15.539313 0.652488 0.000001 -0.000000 0.000004 -0.000007 -3.974451 0.000001 0.000001 -0.000000 
-61.463215 -38.266376 -88.981628 80.360502 -167.730595 0.604745 0.000006 -11.180223 2.228569 15.460324 1.511992 6.895172 -0.000008 -8.683022 1.531059 1.855427 -0.305677 1.047693 -0.000004 -8.783386 0.768443 2.835420 -3.331427 1.787093 -0.000001 -8.816950 0.000012 2.898382 0.028581 0.561136 -0.000013 -11.336057 -1.133610 -15.699513 -4.892050 0.652273 0.000001 -7.643227 -0.668693 4.620461 -1.004261 -1.176042 0.000007 -7.555893 -1.332297 11.431429 0.037940 -1.344601 0.000005 -9.728065 -0.000002 -0.000004 0.000000 -0.000001 -0.000011 -8.097183 -5.270925 -0.000000 15.511867 13.015057 -20.762394 0.000013 0.000006 -39.206720 -48.425003 -108.813362 -29.048920 -0.000026 0.000002 6.265341 -32.531569 3.378800 -22.031225 -0.000016 0.000006 0.400040 -1.166023 18.939064 -3.579282 2.890213 -2.661494 -0.000003 -0.000002 0.000003 -9.544703 0.000003 0.061183 -0.000002 -0.000001 -0.000004 -0.000011 -8.097187 -5.270925 -0.000000 -18.338401 -13.809390 20.762386 0.000014 0.000003 -31.721847 53.475481 100.982148 29.048981 -0.000013 0.000003 -9.205227 30.694894 4.729041 22.031237 -0.000010 -0.000015 -0.626267 -3.472896 -10.228577 3.579294 2.890229 -2.661509 0.000001 -0.000002 -0.000007 9.544706 0.000022 0.061166 0.000008 -0.000000 -0.000002 -10.825159 -0.000012 0.000009 -24.886937 8.257211 5.174557 -0.000005 43.678444 0.000005 22.491381 -0.000000 0.000000 -0.000002 36.488441 -0.000003 1.049777 -1.931775 -14.453235 0.000000 3.967834 -0.000004 -0.000001 0.000003 -0.000002 -0.000009 -0.000004 -15.539311 9.856104 0.000003 0.000002 -0.000001 0.000001 -3.486986 0.000004 0.000003 -0.000000 10.825164 -0.000012 0.000000 -12.242845 -12.719491 -4.013838 -0.000010 43.678455 -0.000012 3.561793 0.000000 0.000000 0.000014 36.488430 -0.000007 7.245243 -6.655151 1.788040 0.000007 3.967827 -0.000006 0.000001 0.000000 -0.000000 0.000017 0.000001 -15.539311 0.714936 0.000001 0.000000 0.000012 -0.000008 -3.974458 0.000000 -0.000000 -0.000000 
-61.407017 -38.103104 -88.979668 80.044264 -167.771412 0.665219 0.000010 -11.180229 2.228559 15.545755 1.530707 6.803733 -0.000004 -8.683003 1.531045 1.929521 -0.299145 1.026153 0.000002 -8.783396 0.768448 2.906050 -3.282668 1.768822 -0.000005 -8.816951 -0.000011 2.835074 0.037845 0.555587 0.000005 -11.336061 -1.133622 -15.748869 -4.898223 0.714104 -0.000001 -7.643248 -0.668694 4.689927 -0.991878 -1.165186 -0.000004 -7.555879 -1.332308 11.395646 0.036514 -1.318742 0.000008 -9.728058 0.000001 -0.000001 0.000001 0.000000 0.000005 -8.097179 -5.270924 -0.000009 15.418992 13.027162 -20.762405 -0.000010 0.000015 -39.484460 -48.194699 -108.920289 -29.048952 0.000000 -0.000012 5.968437 -32.746758 3.236710 -22.031208 -0.000013 -0.000002 0.434155 -1.253147 19.111069 -3.579283 2.890220 -2.661498 0.000004 0.000002 0.000002 -9.544702 -0.000006 0.061186 0.000001 0.000004 -0.000001 0.000003 -8.097187 -5.270925 -0.000016 -18.196444 -13.821777 20.762396 -0.000026 0.000014 -32.204854 53.393440 101.083637 29.048943 -0.000032 -0.000011 -9.604617 30.602263 4.923640 22.031240 -0.000016 0.000003 -0.640661 -3.598886 -10.100574 3.579293 2.890237 -2.661504 -0.000002 -0.000002 0.000001 9.544742 -0.000002 0.061180 -0.000007 -0.000006 0.000004 -10.825148 -0.000012 -0.000008 -25.286537 7.992491 5.289385 0.000011 43.678455 0.000010 22.474488 -0.000003 0.000001 -0.000001 36.488441 -0.000004 0.897928 -1.081869 -14.009059 0.000011 3.967827 0.000012 -0.000001 -0.000001 -0.000002 -0.000011 -0.000005 -15.539295 9.989040 0.000007 -0.000001 -0.000008 -0.000008 -3.486989 0.000001 0.000000 0.000001 10.825188 -0.000026 -0.000003 -12.833148 -12.715739 -4.226566 -0.000013 43.678421 -0.000009 3.827537 0.000000 -0.000000 -0.000019 36.488438 -0.000008 7.165105 -6.589478 1.876967 0.000001 3.967827 -0.000006 0.000000 -0.000000 0.000000 0.000002 -0.000005 -15.539319 0.786599 0.000001 -0.000000 0.000002 -0.000007 -3.974444 0.000001 -0.000001 0.000000 
-61.342037 -37.942741 -88.977325 79.746919 -167.833048 0.723388 0.000003 -11.180204 2.228571 15.658361 1.557828 6.715077 -0.000004 -8.682986 1.531056 2.003776 -0.291878 1.008944 0.000003 -8.783411 0.768453 2.955852 -3.243852 1.740064 -0.000004 -8.816932 -0.000007 2.775302 0.042974 0.547928 0.000002 -11.336078 -1.133629 -15.777144 -4.896747 0.774337 0.000015 -7.643235 -0.668691 4.742637 -0.953566 -1.148952 -0.000012 -7.555860 -1.332301 11.348580 0.035372 -1.288475 0.000013 -9.728073 0.000014 -0.000001 0.000000 0.000001 0.000002 -8.097214 -5.270935 -0.000006 15.319377 13.015939 -20.762383 -0.000018 -0.000006 -39.749061 -48.089251 -109.004512 -29.048946 -0.000002 0.000003 5.671621 -32.983113 3.094642 -22.031210 -0.000030 -0.000007 0.454890 -1.286656 19.473774 -3.579266 2.890212 -2.661478 0.000002 -0.000000 0.000005 -9.544693 -0.000011 0.061207 0.000003 0.000001 0.000000 0.000001 -8.097214 -5.270931 -0.000009 -18.038192 -13.837471 20.762388 -0.000001 0.000009 -32.650022 53.269048 101.148456 29.048923 -0.000026 -0.000017 -9.900696 30.490415 5.060960 22.031235 -0.000026 0.000004 -0.645929 -3.705472 -9.895174 3.579252 2.890221 -2.661510 -0.000000 0.000000 -0.000004 9.544677 -0.000007 0.061190 -0.000003 -0.000002 -0.000001 -10.825171 -0.000004 0.000014 -25.648528 7.698646 5.423974 0.000001 43.678429 0.000008 22.392352 -0.000003 0.000002 0.000009 36.488426 -0.000008 0.742789 -0.071664 -13.295853 -0.000001 3.967827 0.000006 -0.000000 0.000001 -0.000000 -0.000017 0.000006 -15.539290 9.676971 -0.000001 0.000002 0.000015 -0.000007 -3.486985 0.000001 0.000002 -0.000000 10.825172 -0.000010 0.000010 -13.417550 -12.703932 -4.438440 0.000010 43.678448 -0.000005 4.118340 -0.000000 0.000000 0.000005 36.488438 0.000004 7.094507 -6.502890 1.959209 -0.000012 3.967827 -0.000010 0.000002 -0.000001 -0.000000 0.000024 -0.000020 -15.539319 0.815379 0.000000 -0.000000 -0.000010 0.000000 -3.974431 0.000001 -0.000002 0.000000 
